<?xml version="1.0" encoding="UTF-8" standalone="no"?>
<svg
   xmlns:dc="http://purl.org/dc/elements/1.1/"
   xmlns:cc="http://creativecommons.org/ns#"
   xmlns:rdf="http://www.w3.org/1999/02/22-rdf-syntax-ns#"
   xmlns:svg="http://www.w3.org/2000/svg"
   xmlns="http://www.w3.org/2000/svg"
   id="svg6251"
   version="1.1"
   viewBox="0 0 60.004054 24.641139"
   height="24.64114mm"
   width="60.004051mm">
  <defs
     id="defs6245" />
  <metadata
     id="metadata6248">
    <rdf:RDF>
      <cc:Work
         rdf:about="">
        <dc:format>image/svg+xml</dc:format>
        <dc:type
           rdf:resource="http://purl.org/dc/dcmitype/StillImage" />
        <dc:title></dc:title>
      </cc:Work>
    </rdf:RDF>
  </metadata>
  <g
     transform="translate(-90.843215,-129.70921)"
     id="layer1">
    <g
       style="display:inline;fill:#ffffff;fill-opacity:1"
       transform="matrix(0.14335597,0,0,0.14335597,100.55175,146.90773)"
       id="g4993">
      <path
         id="path4987"
         d="m 119.36191,-105.25675 -0.008,0.0191 a 30.681814,37.499999 23 0 0 -42.451047,22.69669 30.681814,37.499999 23 0 0 13.16557,46.29557 l -0.01129,0.0266 0.436408,0.18524 72.828419,30.91383 0.43641,0.18525 0.008,-0.0191 a 30.681814,37.499999 23 0 0 42.45105,-22.69669 30.681814,37.499999 23 0 0 -13.16558,-46.29557 l 0.0113,-0.0266 -0.43642,-0.18525 -72.82841,-30.91383 z m -1.60461,4.75091 a 26.590906,32.500001 23 0 1 11.77844,40.30617 26.590906,32.500001 23 0 1 -37.175827,19.52632 26.590906,32.500001 23 0 1 -11.778019,-40.306 26.590906,32.500001 23 0 1 37.175406,-19.52649 z m -2.93041,6.9036 a 20.454543,25 23 0 0 -28.596615,15.02049 20.454543,25 23 0 0 9.060043,31.0048 20.454543,25 23 0 0 28.597022,-15.02032 20.454543,25 23 0 0 -9.06045,-31.00497 z"
         style="fill:#ffffff;fill-opacity:1;stroke-width:0.21093394" />
      <g
         id="text4991"
         style="font-style:normal;font-variant:normal;font-weight:800;font-stretch:normal;font-size:10.58333302px;line-height:1.25;font-family:'Exo 2';-inkscape-font-specification:'Exo 2 Ultra-Bold';letter-spacing:0px;word-spacing:0px;fill:#ffffff;fill-opacity:1;stroke:none;stroke-width:0.26458332"
         aria-label="CONDUIT">
        <path
           id="path6808"
           style="font-style:normal;font-variant:normal;font-weight:800;font-stretch:normal;font-size:45.86111069px;font-family:'Exo 2';-inkscape-font-specification:'Exo 2 Ultra-Bold';fill:#ffffff;fill-opacity:1;stroke-width:0.26458332"
           d="m 67.562524,31.229074 0.687916,6.282972 q -4.1275,1.421695 -10.685639,1.421695 -7.612944,0 -10.731499,-3.668889 -3.118556,-3.668889 -3.118556,-12.703528 0,-9.034638 3.118556,-12.7035273 3.118555,-3.6688888 10.731499,-3.6688888 5.7785,0 9.997723,1.1465278 l -0.642056,6.3288333 q -4.677833,-0.137583 -9.355667,-0.137583 -2.843388,0 -3.852333,1.880305 -0.963083,1.834445 -0.963083,7.154333 0,5.319889 0.963083,7.200195 1.008945,1.834444 3.852333,1.834444 6.649862,0 9.997723,-0.366889 z" />
        <path
           id="path6810"
           style="font-style:normal;font-variant:normal;font-weight:800;font-stretch:normal;font-size:45.86111069px;font-family:'Exo 2';-inkscape-font-specification:'Exo 2 Ultra-Bold';fill:#ffffff;fill-opacity:1;stroke-width:0.26458332"
           d="m 84.757573,6.0971857 q 5.411611,0 8.392584,1.4675555 2.980972,1.4216944 4.402666,4.9988608 1.421695,3.531306 1.421695,9.997722 0,6.466417 -1.421695,10.043584 -1.421694,3.531305 -4.402666,4.998861 -2.980973,1.421694 -8.392584,1.421694 -7.979833,0 -11.098388,-3.439583 -3.072695,-3.485445 -3.072695,-13.024556 0,-9.539111 3.072695,-12.9786939 3.118555,-3.4854444 11.098388,-3.4854444 z m 4.081639,8.6218883 q -1.054805,-2.017888 -4.081639,-2.017888 -3.026833,0 -4.081638,2.017888 -1.054806,2.017889 -1.054806,7.84225 0,5.824361 1.054806,7.84225 1.054805,2.017889 4.081638,2.017889 3.026834,0 4.081639,-2.017889 1.054806,-2.017889 1.054806,-7.84225 0,-5.824361 -1.054806,-7.84225 z" />
        <path
           id="path6812"
           style="font-style:normal;font-variant:normal;font-weight:800;font-stretch:normal;font-size:45.86111069px;font-family:'Exo 2';-inkscape-font-specification:'Exo 2 Ultra-Bold';fill:#ffffff;fill-opacity:1;stroke-width:0.26458332"
           d="M 131.54809,6.7392412 V 35.356574 q 0,3.026834 -2.98097,3.026834 h -4.08164 q -1.23825,0 -1.92617,-0.550334 -0.68792,-0.596194 -1.42169,-1.972027 l -7.52123,-13.574889 q -1.23825,-2.338917 -2.06375,-5.182306 h -0.36688 q 0.36688,2.843389 0.36688,5.411611 v 15.867945 h -8.02569 V 9.7660745 q 0,-3.0268333 3.02683,-3.0268333 h 4.03578 q 1.23825,0 1.88031,0.5961945 0.68791,0.5503333 1.46755,1.9261666 l 7.24606,13.0704167 q 1.14653,2.06375 2.38478,5.274028 h 0.36688 q -0.32102,-3.164417 -0.36688,-5.549195 V 6.7392412 Z" />
        <path
           id="path6814"
           style="font-style:normal;font-variant:normal;font-weight:800;font-stretch:normal;font-size:45.86111069px;font-family:'Exo 2';-inkscape-font-specification:'Exo 2 Ultra-Bold';fill:#ffffff;fill-opacity:1;stroke-width:0.26458332"
           d="M 137.02706,38.383408 V 6.7392412 q 7.70466,-0.4586111 12.97869,-0.4586111 7.97983,0 11.05253,3.4395833 3.11855,3.4395836 3.11855,12.8411106 0,9.401528 -3.11855,12.841111 -3.0727,3.439584 -11.05253,3.439584 -6.64986,0 -12.97869,-0.458611 z m 8.62189,-25.636361 v 19.582694 q 1.32997,0.04586 4.3568,0.04586 2.98097,0 4.03578,-1.972028 1.0548,-2.017889 1.0548,-7.84225 0,-5.824361 -1.0548,-7.84225 -1.05481,-2.017888 -4.03578,-2.017888 z" />
        <path
           id="path6816"
           style="font-style:normal;font-variant:normal;font-weight:800;font-stretch:normal;font-size:45.86111069px;font-family:'Exo 2';-inkscape-font-specification:'Exo 2 Ultra-Bold';fill:#ffffff;fill-opacity:1;stroke-width:0.26458332"
           d="M 195.2893,6.7392412 V 25.542297 q 0,7.383638 -2.93511,10.456333 -2.88925,3.026833 -9.99773,3.026833 -7.61294,0 -10.7315,-3.026833 -3.11855,-3.072695 -3.11855,-10.456333 V 6.7392412 h 8.62189 V 25.542297 q 0,4.035777 1.00894,5.457472 1.00895,1.421694 3.76061,1.421694 2.75167,0 3.76061,-1.421694 1.00895,-1.421695 1.00895,-5.457472 V 6.7392412 Z" />
        <path
           id="path6818"
           style="font-style:normal;font-variant:normal;font-weight:800;font-stretch:normal;font-size:45.86111069px;font-family:'Exo 2';-inkscape-font-specification:'Exo 2 Ultra-Bold';fill:#ffffff;fill-opacity:1;stroke-width:0.26458332"
           d="M 209.10997,38.383408 H 200.5798 V 6.7392412 h 8.53017 z" />
        <path
           id="path6820"
           style="font-style:normal;font-variant:normal;font-weight:800;font-stretch:normal;font-size:45.86111069px;font-family:'Exo 2';-inkscape-font-specification:'Exo 2 Ultra-Bold';fill:#ffffff;fill-opacity:1;stroke-width:0.26458332"
           d="m 239.40554,13.389102 h -9.12636 v 24.994306 h -8.62189 V 13.389102 h -9.0805 V 6.7392412 h 26.82875 z" />
      </g>
    </g>
  </g>
</svg>
