<?xml version="1.0" encoding="UTF-8" standalone="no"?>
<svg
   xmlns:dc="http://purl.org/dc/elements/1.1/"
   xmlns:cc="http://creativecommons.org/ns#"
   xmlns:rdf="http://www.w3.org/1999/02/22-rdf-syntax-ns#"
   xmlns:svg="http://www.w3.org/2000/svg"
   xmlns="http://www.w3.org/2000/svg"
   id="svg5057"
   version="1.1"
   viewBox="0 0 210 180"
   height="180mm"
   width="210mm">
  <defs
     id="defs5051" />
  <metadata
     id="metadata5054">
    <rdf:RDF>
      <cc:Work
         rdf:about="">
        <dc:format>image/svg+xml</dc:format>
        <dc:type
           rdf:resource="http://purl.org/dc/dcmitype/StillImage" />
        <dc:title></dc:title>
      </cc:Work>
    </rdf:RDF>
  </metadata>
  <g
     transform="translate(0,-117)"
     id="layer1">
    <g
       id="g4816"
       transform="translate(-36.560145,241.02686)"
       style="display:inline">
      <path
         style="fill:#003471;fill-opacity:1;stroke-width:0.21093394"
         d="m 119.36191,-105.25675 -0.008,0.0191 a 30.681814,37.499999 23 0 0 -42.451047,22.69669 30.681814,37.499999 23 0 0 13.16557,46.29557 l -0.01129,0.0266 0.436408,0.18524 72.828419,30.91383 0.43641,0.18525 0.008,-0.0191 a 30.681814,37.499999 23 0 0 42.45105,-22.69669 30.681814,37.499999 23 0 0 -13.16558,-46.29557 l 0.0113,-0.0266 -0.43642,-0.18525 -72.82841,-30.91383 z m -1.60461,4.75091 a 26.590906,32.500001 23 0 1 11.77844,40.30617 26.590906,32.500001 23 0 1 -37.175827,19.52632 26.590906,32.500001 23 0 1 -11.778019,-40.306 26.590906,32.500001 23 0 1 37.175406,-19.52649 z m -2.93041,6.9036 a 20.454543,25 23 0 0 -28.596615,15.02049 20.454543,25 23 0 0 9.060043,31.0048 20.454543,25 23 0 0 28.597022,-15.02032 20.454543,25 23 0 0 -9.06045,-31.00497 z"
         id="path4810" />
      <text
         xml:space="preserve"
         style="font-style:normal;font-variant:normal;font-weight:800;font-stretch:normal;font-size:10.58333302px;line-height:1.25;font-family:'Exo 2';-inkscape-font-specification:'Exo 2 Ultra-Bold';letter-spacing:0px;word-spacing:0px;fill:#000000;fill-opacity:1;stroke:none;stroke-width:0.26458332"
         x="41.926163"
         y="38.383408"
         id="text4814"><tspan
           id="tspan4812"
           x="41.926163"
           y="38.383408"
           style="font-style:normal;font-variant:normal;font-weight:800;font-stretch:normal;font-size:45.86111069px;font-family:'Exo 2';-inkscape-font-specification:'Exo 2 Ultra-Bold';fill:#003471;fill-opacity:1;stroke-width:0.26458332">CONDUIT</tspan></text>
    </g>
  </g>
</svg>
